<svg xmlns="http://www.w3.org/2000/svg" style="display: none;">
  <symbol id="icon-profile">
    <path d="M2.5 9.5L12 4l9.5 5.5" stroke-linecap="round" stroke-linejoin="round" />
    <path d="M7 21v-1a5 5 0 015-5v0a5 5 0 015 5v1" />
    <path d="M12 15a3 3 0 100-6 3 3 0 000 6z" stroke-linecap="round" stroke-linejoin="round" />
  </symbol>

  <symbol id="icon-dialogs">
    <path d="M8 10h8M8 14h4M12 22c5.523 0 10-4.477 10-10S17.523 2 12 2 2 6.477 2 12c0 1.821.487 3.53 1.338 5L2.5 21.5l4.5-.838A9.955 9.955 0 0012 22z" stroke-linecap="round" stroke-linejoin="round" />
  </symbol>

  <symbol id="icon-friends">
    <path d="M1 20v-1a7 7 0 017-7v0a7 7 0 017 7v1" stroke-linecap="round" />
    <path d="M13 14v0a5 5 0 015-5v0a5 5 0 015 5v.5" stroke-linecap="round" />
    <path d="M8 12a4 4 0 100-8 4 4 0 000 8zM18 9a3 3 0 100-6 3 3 0 000 6z" stroke-linecap="round" stroke-linejoin="round" />
  </symbol>

  <symbol id="icon-music">
    <path d="M3 20.4V3.6a.6.6 0 01.6-.6h16.8a.6.6 0 01.6.6v16.8a.6.6 0 01-.6.6H3.6a.6.6 0 01-.6-.6z" />
    <path d="M12 15.5a1.5 1.5 0 11-3 0 1.5 1.5 0 013 0zm0 0V7.6a.6.6 0 01.6-.6H15" stroke-linecap="round" />
  </symbol>

  <symbol id="icon-video">
    <path d="M21 3.6v16.8a.6.6 0 01-.6.6H3.6a.6.6 0 01-.6-.6V3.6a.6.6 0 01.6-.6h16.8a.6.6 0 01.6.6z" stroke-linecap="round" stroke-linejoin="round" />
    <path d="M9.898 8.513a.6.6 0 00-.898.52v5.933a.6.6 0 00.898.521l5.19-2.966a.6.6 0 000-1.042l-5.19-2.966z" stroke-linecap="round" stroke-linejoin="round" />
  </symbol>

  <symbol id="icon-add">
    <path d="M6 12h6m6 0h-6m0 0V6m0 6v6" stroke-linecap="round" stroke-linejoin="round" />
  </symbol>

  <symbol id="icon-close">
    <path d="M6.758 17.243L12.001 12m5.243-5.243L12 12m0 0L6.758 6.757M12.001 12l5.243 5.243" stroke-linecap="round" stroke-linejoin="round" />
  </symbol>

  <symbol id="icon-search">
    <path d="M15.5 15.5L19 19M5 11a6 6 0 1012 0 6 6 0 00-12 0z" stroke-linecap="round" stroke-linejoin="round" />
  </symbol>

  <symbol id="icon-heart">
    <path d="M22 8.862a5.95 5.95 0 01-1.654 4.13c-2.441 2.531-4.809 5.17-7.34 7.608-.581.55-1.502.53-2.057-.045l-7.295-7.562c-2.205-2.286-2.205-5.976 0-8.261a5.58 5.58 0 018.08 0l.266.274.265-.274A5.612 5.612 0 0116.305 3c1.52 0 2.973.624 4.04 1.732A5.95 5.95 0 0122 8.862z" stroke-linejoin="round" />
  </symbol>

  <symbol id="icon-comment">
    <path d="M12 22c5.523 0 10-4.477 10-10S17.523 2 12 2 2 6.477 2 12c0 1.821.487 3.53 1.338 5L2.5 21.5l4.5-.838A9.955 9.955 0 0012 22z" stroke-linecap="round" stroke-linejoin="round" />
  </symbol>

  <symbol id="icon-repost">
    <path d="M22 10H8c-8 0-8 11 0 11m14-11l-7-7m7 7l-7 7" stroke-linecap="round" stroke-linejoin="round" />
  </symbol>

  <symbol id="icon-view">
    <path d="M12 14a2 2 0 100-4 2 2 0 000 4z" stroke-linecap="round" stroke-linejoin="round" />
    <path d="M21 12c-1.889 2.991-5.282 6-9 6s-7.111-3.009-9-6c2.299-2.842 4.992-6 9-6s6.701 3.158 9 6z" stroke-linecap="round" stroke-linejoin="round" />
  </symbol>

  <symbol id="icon-action">
    <path d="M18 12.5a.5.5 0 100-1 .5.5 0 000 1zM12 12.5a.5.5 0 100-1 .5.5 0 000 1zM6 12.5a.5.5 0 100-1 .5.5 0 000 1z" stroke-linecap="round" stroke-linejoin="round" />
  </symbol>

  <symbol id="icon-sort">
    <path d="M3 7V4a1 1 0 011-1h16a1 1 0 011 1v3M3 7l6.65 5.7a1 1 0 01.35.76v6.26a1 1 0 001.242.97l2-.5a1 1 0 00.758-.97v-5.76a1 1 0 01.35-.76L21 7M3 7h18" stroke-linecap="round" stroke-linejoin="round" />
  </symbol>

  <symbol id="icon-check">
    <path d="M8 12l3 3 5-5" stroke-linecap="round" stroke-linejoin="round" />
    <path d="M12 22c5.523 0 10-4.477 10-10S17.523 2 12 2 2 6.477 2 12c0 1.821.487 3.53 1.338 5L2.5 21.5l4.5-.838A9.955 9.955 0 0012 22z" stroke-linecap="round" stroke-linejoin="round" />
  </symbol>
</svg>