<svg width="30" height="30" viewBox="0 0 30 30" fill="none" xmlns="http://www.w3.org/2000/svg">
  <path d="M6.688 21.16C5.83467 21.16 5.04 21.0213 4.304 20.744C3.57867 20.456 2.944 20.056 2.4 19.544C1.86667 19.0213 1.45067 18.408 1.152 17.704C0.853333 17 0.704 16.232 0.704 15.4C0.704 14.568 0.853333 13.8 1.152 13.096C1.45067 12.392 1.872 11.784 2.416 11.272C2.96 10.7493 3.59467 10.3493 4.32 10.072C5.04533 9.784 5.84 9.64 6.704 9.64C7.62133 9.64 8.45867 9.8 9.216 10.12C9.97333 10.4293 10.6133 10.8933 11.136 11.512L9.792 12.776C9.38667 12.3387 8.93333 12.0133 8.432 11.8C7.93067 11.576 7.38667 11.464 6.8 11.464C6.21333 11.464 5.67467 11.56 5.184 11.752C4.704 11.944 4.28267 12.216 3.92 12.568C3.568 12.92 3.29067 13.336 3.088 13.816C2.896 14.296 2.8 14.824 2.8 15.4C2.8 15.976 2.896 16.504 3.088 16.984C3.29067 17.464 3.568 17.88 3.92 18.232C4.28267 18.584 4.704 18.856 5.184 19.048C5.67467 19.24 6.21333 19.336 6.8 19.336C7.38667 19.336 7.93067 19.2293 8.432 19.016C8.93333 18.792 9.38667 18.456 9.792 18.008L11.136 19.288C10.6133 19.896 9.97333 20.36 9.216 20.68C8.45867 21 7.616 21.16 6.688 21.16ZM17.785 12.36C18.4677 12.36 19.0757 12.4933 19.609 12.76C20.153 13.0267 20.5797 13.4373 20.889 13.992C21.1983 14.536 21.353 15.24 21.353 16.104V21H19.353V16.36C19.353 15.6027 19.1717 15.0373 18.809 14.664C18.457 14.2907 17.961 14.104 17.321 14.104C16.8517 14.104 16.4357 14.2 16.073 14.392C15.7103 14.584 15.4277 14.872 15.225 15.256C15.033 15.6293 14.937 16.104 14.937 16.68V21H12.937V9.128H14.937V14.76L14.505 14.056C14.8037 13.512 15.2357 13.096 15.801 12.808C16.377 12.5093 17.0383 12.36 17.785 12.36ZM27.1061 21.112C26.1675 21.112 25.4421 20.872 24.9301 20.392C24.4181 19.9013 24.1621 19.1813 24.1621 18.232V10.568H26.1621V18.184C26.1621 18.5893 26.2635 18.904 26.4661 19.128C26.6795 19.352 26.9728 19.464 27.3461 19.464C27.7941 19.464 28.1675 19.3467 28.4661 19.112L29.0261 20.536C28.7915 20.728 28.5035 20.872 28.1621 20.968C27.8208 21.064 27.4688 21.112 27.1061 21.112ZM22.7541 14.12V12.52H28.4501V14.12H22.7541Z" fill="white"/>
</svg>
